<svg xmlns="http://www.w3.org/2000/svg" viewBox="0 0 60 40">
  <rect width="60" height="40" fill="#012169" />

  <polygon points="0,0 7,0 60,34 60,40 53,40 0,6" fill="#ffffff" />
  <polygon points="60,0 53,0 0,34 0,40 7,40 60,6" fill="#ffffff" />

  <polygon points="0,0 3.5,0 60,36.5 60,40 56.5,40 0,3.5" fill="#C8102E" />
  <polygon points="60,0 56.5,0 0,36.5 0,40 3.5,40 60,3.5" fill="#C8102E" />

  <rect x="24" y="0" width="12" height="40" fill="#ffffff" />
  <rect x="0" y="14" width="60" height="12" fill="#ffffff" />

  <rect x="26" y="0" width="8" height="40" fill="#C8102E" />
  <rect x="0" y="16" width="60" height="8" fill="#C8102E" />
</svg>
